<?xml version="1.0" standalone="no"?>
<!DOCTYPE svg PUBLIC "-//W3C//DTD SVG 20010904//EN"
 "http://www.w3.org/TR/2001/REC-SVG-20010904/DTD/svg10.dtd">
<svg version="1.0" xmlns="http://www.w3.org/2000/svg"
 width="490.000000pt" height="490.000000pt" viewBox="0 0 490.000000 490.000000"
 preserveAspectRatio="xMidYMid meet">
<metadata>
Created by potrace 1.14, written by Peter Selinger 2001-2017
</metadata>
<g transform="translate(0.000000,490.000000) scale(0.100000,-0.100000)"
fill="#000000" stroke="none">
<path d="M2251 4040 c-19 -50 -39 -94 -45 -98 -6 -5 -49 -18 -96 -31 -46 -12
-86 -24 -89 -26 -2 -3 -4 -184 -5 -402 l-1 -398 -90 -1 c-49 0 -96 2 -102 4
-10 3 -13 82 -13 349 0 305 -2 344 -15 339 -18 -7 -127 -80 -164 -110 -32 -26
-189 -184 -215 -216 -10 -13 -42 -60 -72 -105 -121 -185 -190 -384 -210 -605
-3 -36 -11 -68 -16 -71 -6 -4 -56 -6 -112 -6 l-101 0 -3 -136 -3 -137 38 0
c21 -1 270 -1 554 -1 l515 -1 32 -62 c18 -35 32 -67 32 -72 0 -5 7 -18 16 -29
14 -19 27 -20 382 -21 321 0 368 2 378 15 7 9 29 48 49 86 21 39 43 73 48 77
6 3 256 7 555 7 299 0 547 3 550 6 10 10 7 265 -3 266 -5 1 -56 1 -112 1 -57
0 -103 3 -104 6 0 4 -2 29 -5 56 -16 183 -65 350 -150 514 -39 73 -97 168
-113 182 -4 3 -20 23 -36 45 -67 90 -236 238 -345 301 l-35 21 0 -349 c0 -191
-2 -349 -5 -349 -3 -1 -49 -2 -102 -3 l-98 -2 0 65 c-1 36 -2 217 -3 401 l-2
334 -80 24 c-44 12 -91 26 -104 30 -19 5 -31 24 -54 82 -16 41 -32 82 -36 90
-7 12 -41 15 -192 18 l-184 2 -34 -90z"/>
<path d="M2939 2369 c-1 -2 -2 -15 -4 -29 -11 -106 -16 -148 -20 -165 -2 -11
-4 -31 -4 -44 -1 -19 -5 -22 -23 -16 -68 21 -66 22 -57 -42 10 -70 25 -234 28
-307 1 -30 13 -11 16 26 9 111 23 205 31 220 3 4 20 -2 39 -13 33 -20 35 -20
36 -2 1 10 1 21 0 26 -2 13 -17 168 -27 272 -5 60 -11 90 -15 74z"/>
<path d="M1999 2349 c-2 -21 -14 -110 -24 -174 -2 -11 -4 -31 -4 -44 -1 -19
-5 -22 -23 -17 -66 18 -68 18 -64 5 5 -16 13 -79 22 -194 4 -44 8 -91 10 -105
1 -14 3 -36 4 -50 2 -21 3 -20 10 10 5 19 11 64 15 100 14 142 13 139 50 122
29 -13 59 -16 52 -4 -5 6 -11 64 -22 182 -13 141 -17 175 -21 179 -2 2 -5 -2
-5 -10z"/>
<path d="M1279 2278 c0 -7 -1 -193 -2 -413 l-2 -400 135 -78 c74 -43 142 -82
150 -87 18 -11 109 -63 165 -95 22 -12 123 -71 225 -130 102 -59 199 -115 215
-125 37 -21 135 -78 155 -90 8 -5 47 -27 86 -50 l72 -41 78 46 c44 25 86 49
94 54 8 5 101 58 205 119 105 60 294 169 420 242 127 73 239 138 250 144 11 7
50 29 86 50 l66 39 0 413 0 414 -238 0 -238 0 5 -22 c3 -13 5 -66 5 -118 0
-236 -120 -466 -314 -598 -334 -229 -773 -154 -1014 172 -98 133 -142 276
-138 454 l2 112 -233 0 c-180 0 -234 -3 -235 -12z"/>
</g>
</svg>
