<svg version="1.1" id="Layer_1" xmlns="http://www.w3.org/2000/svg" xmlns:xlink="http://www.w3.org/1999/xlink" x="0px" y="0px"
	 width="100%" viewBox="0 0 446 490" enable-background="new 0 0 446 490" xml:space="preserve">
<path fill="#000000" opacity="1.000000" stroke="none" 
	d="
M279.000000,491.000000 
	C187.333328,491.000000 96.166634,490.975342 5.000126,491.095764 
	C1.575925,491.100281 0.902962,490.423676 0.905280,486.999939 
	C1.014062,326.333344 1.014062,165.666656 0.905280,5.000064 
	C0.902962,1.576345 1.576294,0.902554 5.000072,0.905141 
	C150.999985,1.015456 297.000000,1.015456 442.999939,0.905141 
	C446.423706,0.902554 447.097046,1.576345 447.094727,5.000064 
	C446.985962,165.666656 446.985962,326.333344 447.094727,486.999939 
	C447.097046,490.423676 446.424866,491.105927 442.999756,491.097229 
	C388.500092,490.959106 334.000000,491.000000 279.000000,491.000000 
z"/>
<path fill="#FE9400" opacity="1.000000" stroke="none" 
	d="
M227.029861,270.833496 
	C215.317139,270.830994 204.097778,270.726318 192.882675,270.899200 
	C189.842300,270.946045 187.803299,270.313599 186.774597,267.239685 
	C186.311996,265.857361 184.953934,264.732605 184.645264,263.347656 
	C182.449356,253.494949 176.138916,251.967789 166.817520,252.170227 
	C136.175247,252.835693 105.507988,252.266586 74.854233,252.568176 
	C69.572403,252.620117 68.381699,251.048492 68.766472,246.208588 
	C69.187653,240.910660 69.235947,235.519226 68.752731,230.231979 
	C68.307510,225.360428 70.268341,224.330780 74.594254,224.667679 
	C78.900047,225.002991 83.259705,224.586792 87.581810,224.792694 
	C90.602608,224.936569 91.783051,223.710388 91.902901,220.815704 
	C92.935974,195.864288 101.188431,173.306229 115.188927,152.858932 
	C126.407730,136.474228 140.574905,123.067848 157.887177,113.142525 
	C158.558136,112.757858 159.322174,112.535583 160.047897,112.235565 
	C161.049377,114.109955 160.601349,115.788857 160.603867,117.393349 
	C160.635559,137.553299 160.701935,157.713928 160.546844,177.872726 
	C160.520233,181.330643 161.419495,182.632339 164.979935,182.359482 
	C168.789200,182.067551 172.655289,182.068665 176.464890,182.358429 
	C180.091568,182.634293 180.877090,181.168991 180.858719,177.792786 
	C180.730087,154.134491 180.858459,130.474747 180.714371,106.816628 
	C180.693939,103.462395 181.392273,101.541893 184.960922,100.959229 
	C187.565125,100.534035 190.033737,99.146736 192.635788,98.866791 
	C198.492889,98.236649 201.553604,94.989952 202.529480,89.437965 
	C202.644562,88.783257 203.122894,88.235580 203.196564,87.796036 
	C204.801804,78.220215 211.036438,76.871033 219.415680,77.696236 
	C226.511200,78.395020 233.731949,77.931175 240.893539,77.790787 
	C243.352158,77.742592 244.814056,78.291840 245.752609,80.820938 
	C247.713455,86.104813 248.809845,92.613823 252.593689,96.054802 
	C256.161377,99.299202 262.684082,99.422089 267.977997,100.597847 
	C271.884125,101.465370 273.086365,103.347519 273.043549,107.463387 
	C272.800934,130.785660 273.020660,154.112503 272.832672,177.435791 
	C272.801025,181.358414 273.821564,182.736130 277.777527,182.367432 
	C281.411499,182.028763 285.123444,182.046448 288.761200,182.363785 
	C292.400787,182.681274 293.133728,181.260559 293.107849,177.867569 
	C292.954041,157.708618 293.031921,137.547882 293.031952,117.387756 
	C293.031952,115.771339 293.031952,114.154915 293.031952,112.092331 
	C300.335571,115.028206 306.080994,119.514885 311.624390,124.084572 
	C342.042450,149.159607 358.840088,181.413040 361.764374,220.773788 
	C361.979889,223.674911 362.828491,224.929703 365.917908,224.797867 
	C370.907196,224.584900 375.917938,224.886093 380.908417,224.687958 
	C383.880432,224.569946 385.036224,225.416412 384.921814,228.578705 
	C384.692993,234.901718 384.592865,241.253448 384.947479,247.564804 
	C385.174255,251.600769 383.799622,252.519135 379.947174,252.502518 
	C346.791901,252.359390 313.634460,252.564346 280.481049,252.276962 
	C275.043427,252.229843 271.879486,253.585617 269.965302,258.763550 
	C268.667358,262.274536 266.292847,265.375671 264.559143,268.742188 
	C263.641998,270.523041 262.214417,270.831116 260.494720,270.830688 
	C249.504745,270.827972 238.514786,270.833099 227.029861,270.833496 
z"/>
<path fill="#1191DB" opacity="1.000000" stroke="none" 
	d="
M317.000854,261.661377 
	C325.996582,261.662292 334.494598,261.769897 342.987427,261.607208 
	C346.024078,261.549042 346.969208,262.521881 346.956360,265.586578 
	C346.849335,291.074066 346.873352,316.562225 346.932343,342.049988 
	C346.938110,344.530823 345.975128,345.850372 343.818298,347.090515 
	C318.296570,361.764435 292.864563,376.594269 267.365479,391.307709 
	C255.167877,398.345978 242.800278,405.092987 230.683823,412.266052 
	C227.629333,414.074341 225.077209,413.965057 222.407745,412.334778 
	C204.887741,401.635223 186.978989,391.614929 169.127121,381.487823 
	C151.868118,371.697052 134.830719,361.515900 117.676003,351.540558 
	C116.406433,350.802307 114.931038,350.425720 113.627472,349.736877 
	C108.724098,347.145905 106.478569,343.753235 106.622841,337.503448 
	C107.168648,313.860596 106.937218,290.196838 106.749725,266.542877 
	C106.718285,262.575775 107.844284,261.500336 111.747993,261.573456 
	C124.404228,261.810486 137.069550,261.783112 149.727158,261.586639 
	C153.387146,261.529846 154.608475,262.302307 154.073730,266.253296 
	C151.269424,286.972626 156.970398,305.485229 169.940323,321.603943 
	C190.565994,347.237000 226.700195,356.564514 257.212860,342.048553 
	C270.988617,335.494965 281.856659,325.858154 289.607819,312.849792 
	C298.067566,298.652313 301.909302,283.230011 299.429443,266.734558 
	C298.741516,262.158661 299.950378,261.320557 304.012177,261.598755 
	C308.157166,261.882629 312.336700,261.661438 317.000854,261.661377 
z"/>
<path fill="#FB9300" opacity="1.000000" stroke="none" 
	d="
M176.875244,275.293121 
	C177.561905,269.690765 177.781265,264.391602 179.561523,257.962097 
	C180.786499,270.080414 181.881073,280.908813 182.988525,291.864471 
	C179.896149,291.794891 177.698486,288.331390 175.557755,289.538879 
	C173.208328,290.864075 174.661057,294.496582 173.874603,296.884583 
	C172.295120,301.680542 173.750458,306.895752 171.409210,311.682861 
	C170.304840,301.192627 169.179031,290.861328 168.161728,280.519318 
	C167.965988,278.529266 168.958252,277.896149 170.843567,278.924225 
	C172.251343,279.691864 173.739761,280.311554 175.446838,281.117279 
	C175.934235,279.161926 176.371063,277.409363 176.875244,275.293121 
z"/>
<path fill="#FB9300" opacity="1.000000" stroke="none" 
	d="
M274.122559,262.309631 
	C274.976990,270.867950 275.793243,279.043060 276.648499,287.214050 
	C276.800079,288.662079 277.734497,290.434692 276.685242,291.462128 
	C275.352051,292.767548 273.997925,290.975311 272.892822,290.344055 
	C268.862183,288.041748 268.363831,290.428833 268.029999,293.578094 
	C267.389984,299.615936 266.622925,305.640320 265.398224,311.593475 
	C264.298187,301.193481 263.159821,290.797211 262.142853,280.389099 
	C262.003540,278.963043 262.581146,277.757996 264.508209,278.784241 
	C266.059753,279.610504 267.702393,280.265686 269.709320,281.181427 
	C270.874390,273.584869 271.994720,266.280060 273.115051,258.975281 
	C273.362701,258.999237 273.610352,259.023193 273.858002,259.047150 
	C273.937927,260.006439 274.017822,260.965729 274.122559,262.309631 
z"/>
<path fill="#4D4D4D" opacity="1.000000" stroke="none" 
	d="
M171.436157,315.142029 
	C173.242737,315.492798 172.919342,316.348236 172.241104,317.246857 
	C171.993683,317.574646 171.608795,318.346222 171.236298,317.743866 
	C170.797226,317.033905 170.162704,316.062134 171.436157,315.142029 
z"/>
<path fill="#4D4D4D" opacity="1.000000" stroke="none" 
	d="
M264.686493,315.776459 
	C265.663452,314.961884 266.650421,314.756561 266.735504,316.263184 
	C266.764435,316.775299 266.109650,317.742401 265.694153,317.784760 
	C264.473480,317.909302 265.058960,316.650421 264.686493,315.776459 
z"/>
<path fill="#030200" opacity="1.000000" stroke="none" 
	d="
M204.866653,240.595490 
	C206.769058,232.015091 206.766464,232.025726 198.228668,229.939667 
	C196.635834,229.550476 195.073120,229.037949 193.375259,228.547318 
	C194.051392,226.820328 194.750046,225.140594 195.367447,223.431488 
	C196.095200,221.416977 197.069458,220.590439 199.410080,221.541458 
	C202.639282,222.853546 204.424301,221.881943 205.223602,218.005417 
	C206.953705,209.614670 209.076447,201.284378 211.498215,193.064774 
	C212.857330,188.451889 211.586807,185.811264 207.024277,185.304138 
	C203.793228,184.944992 204.547714,183.506104 204.902786,181.414062 
	C205.338882,178.844681 206.173737,177.336075 209.052689,178.066238 
	C209.532806,178.188034 209.993896,178.385880 210.474854,178.503189 
	C213.360199,179.207016 216.702728,181.118027 219.012238,180.259033 
	C221.460678,179.348373 221.128677,175.140289 221.735733,172.388290 
	C222.449280,169.153595 224.053329,169.994049 226.050003,170.465515 
	C228.265594,170.988663 229.817139,171.639008 228.518173,174.404373 
	C227.897537,175.725632 227.685104,177.245209 227.339066,178.687256 
	C226.905243,180.495239 226.305176,182.330582 229.061081,182.950439 
	C231.415161,183.479935 232.421906,182.350037 232.900772,180.294693 
	C233.199966,179.010513 233.709717,177.749130 233.817047,176.452042 
	C234.033417,173.837204 234.728073,172.443695 237.856644,173.313385 
	C240.633804,174.085373 241.746628,175.242737 240.634430,178.093552 
	C240.159058,179.312073 240.217285,180.768738 239.627121,181.906647 
	C238.100540,184.849976 239.629379,185.838150 242.092697,186.939362 
	C250.649628,190.764679 253.108353,194.733612 252.076141,201.989395 
	C251.422531,206.583969 248.674362,209.375641 244.603882,211.184723 
	C251.610214,217.453873 252.643066,221.359589 249.387009,228.900696 
	C246.558395,235.451828 240.788452,238.582199 232.745728,237.929138 
	C225.726471,237.359177 225.527908,237.318512 224.117538,244.201370 
	C223.452820,247.445267 222.469879,248.212204 219.200607,247.212616 
	C217.050415,246.555191 216.479218,245.861282 216.966202,243.876663 
	C217.438324,241.952667 217.502548,239.845810 218.351074,238.116150 
	C219.659775,235.448532 218.126251,235.251343 216.234787,234.550140 
	C213.943985,233.700912 213.296463,234.449707 212.948715,236.590347 
	C212.606903,238.694412 211.878326,240.734741 211.337708,242.807800 
	C210.988190,244.148071 210.526031,245.779175 208.825745,244.527710 
	C207.409744,243.485443 203.160538,245.434601 204.866653,240.595490 
z"/>
<path fill="#FA9200" opacity="1.000000" stroke="none" 
	d="
M232.178802,214.728867 
	C235.899460,216.767380 238.025803,219.451736 236.639053,223.378983 
	C235.296692,227.180603 231.914261,228.115692 228.180267,228.004166 
	C224.048264,227.880737 217.702972,227.856537 216.816299,225.268753 
	C215.554764,221.586975 218.066299,216.539459 219.215897,212.140732 
	C219.669403,210.405441 221.331314,210.940887 222.570953,211.343719 
	C225.683594,212.355164 228.768890,213.450714 232.178802,214.728867 
z"/>
<path fill="#F89100" opacity="1.000000" stroke="none" 
	d="
M233.827911,192.982666 
	C237.732971,194.968658 240.397964,197.653473 238.579910,201.812775 
	C236.778152,205.934799 232.849335,206.335861 228.811142,205.564133 
	C221.356659,204.139496 221.357758,204.133820 222.887222,197.910904 
	C224.935410,189.577515 224.935394,189.577515 233.827911,192.982666 
z"/>
</svg>