<svg width="172" height="51" viewBox="0 0 172 51" fill="none" xmlns="http://www.w3.org/2000/svg">
<path fill-rule="evenodd" clip-rule="evenodd" d="M114.048 18.3225C114.831 18.3225 115.531 18.0358 116.066 17.5238C116.602 16.9914 116.869 16.3156 116.869 15.5169C116.869 14.7182 116.56 14.0015 116.004 13.4895C115.469 12.9775 114.748 12.7113 113.945 12.7113H107.726V9.61895C107.726 8.84075 107.438 8.12399 106.861 7.57105C106.305 7.01812 105.584 6.71094 104.802 6.71094C103.999 6.71094 103.278 7.01812 102.722 7.61201C102.207 8.16495 101.919 8.86123 101.919 9.63943V33.4565C101.919 36.815 102.681 39.4568 104.164 41.2999C105.729 43.2454 108.303 44.2284 111.845 44.2284H113.945C114.769 44.2284 115.49 43.9417 116.046 43.3888C116.602 42.8359 116.89 42.1396 116.89 41.3614C116.89 40.6037 116.602 39.8869 116.087 39.334C115.531 38.7605 114.81 38.4329 113.966 38.4329H111.865C110.259 38.4329 109.188 38.0847 108.673 37.3885C108.056 36.5693 107.747 35.2382 107.747 33.436V18.3225H114.048ZM95.0621 28.1526C92.6939 26.33 89.7491 25.7361 87.1751 25.3879C87.0635 25.3769 86.9519 25.3597 86.8436 25.3431L86.8436 25.3431L86.8435 25.3431C86.752 25.3291 86.6628 25.3154 86.5779 25.306L86.3687 25.2777C85.5267 25.1639 84.655 25.0462 83.8184 24.876C83.0153 24.7121 82.3769 24.5278 81.8415 24.3026C81.4297 24.1387 81.0178 23.9544 80.7295 23.6472C80.4206 23.34 80.2353 22.869 80.1529 22.2751C80.0706 21.4969 80.1529 20.7392 80.4 20.1863C80.7501 19.4081 81.5944 18.8756 82.9947 18.5275C84.0656 18.2817 85.1776 18.2817 86.269 18.2817H93.4146C94.2178 18.2817 95.0621 18.2817 95.8034 17.7083C96.5035 17.1759 96.8948 16.2953 96.8742 15.3737C96.833 14.4522 96.38 13.6125 95.6387 13.1415C94.9179 12.6705 94.0942 12.6705 93.394 12.6705H87.9782H87.0515C85.61 12.65 84.1067 12.65 82.6447 12.8753C80.5648 13.1825 78.8968 13.8378 77.5583 14.8413C76.1785 15.8857 75.1489 17.3602 74.6341 18.9985C74.1605 20.5754 74.0987 22.398 74.4488 24.1183C74.7577 25.6132 75.4578 26.9034 76.4463 27.8249C77.3523 28.6851 78.5879 29.3609 80.2353 29.9138C81.8827 30.4667 83.5507 30.692 84.8275 30.8354C85.1158 30.8763 85.4041 30.8968 85.6924 30.9173C87.6281 31.1016 89.605 31.3064 91.0671 32.4942C91.6025 32.9242 91.932 33.4771 92.0349 34.0915C92.1585 34.7673 92.0761 35.5455 91.8496 36.2213C91.6643 36.7743 91.3348 37.2043 90.8817 37.491C90.4287 37.7982 89.8521 38.0235 89.0902 38.2078C87.6075 38.5764 86.0425 38.5764 84.498 38.5559H83.6537H78.176H77.9083C77.0023 38.5559 76.1785 38.945 75.6637 39.6208C75.1077 40.3376 74.943 41.3001 75.2313 42.2012C75.499 43.0818 76.1374 43.7371 76.9817 44.0238C77.3729 44.1467 77.7848 44.1672 78.176 44.1672H78.5261H78.835H82.9947H85.8983C89.0902 44.1672 93.1058 43.7986 95.6798 41.0544C96.8124 39.8461 97.5538 38.3102 97.8215 36.59C98.1098 34.7673 98.0068 33.0061 97.5126 31.5316C97.0184 30.2005 96.1947 29.0127 95.0621 28.1526ZM137.647 13.4482C138.759 13.9397 139.748 14.636 140.551 15.4961C141.354 16.3562 141.992 17.4006 142.445 18.5679C142.878 19.7557 143.104 21.0049 143.104 22.3361V40.5419C143.104 41.5453 142.734 42.4464 142.034 43.1427C141.333 43.839 140.427 44.2076 139.418 44.2076H128.792C127.475 44.2076 126.218 43.9619 125.045 43.4704C123.871 42.9789 122.841 42.3031 121.976 41.443C121.111 40.5828 120.411 39.5794 119.938 38.4325C119.443 37.2857 119.196 36.0365 119.196 34.7258C119.196 33.4152 119.443 32.166 119.938 31.0192C120.432 29.8723 121.111 28.8689 121.976 28.0087C122.841 27.1486 123.871 26.4728 125.024 25.9608C126.198 25.4693 127.475 25.2031 128.792 25.2031H137.277V22.5204C137.277 21.2507 136.947 20.2267 136.309 19.3871C135.753 18.6498 135.011 18.3222 133.961 18.3222H123.788C122.017 18.3222 120.864 17.2163 120.864 15.5166C120.864 14.7179 121.132 14.0421 121.667 13.5096C122.203 12.9976 122.903 12.7109 123.685 12.7109H133.961C135.279 12.7109 136.535 12.9567 137.647 13.4482ZM137.277 38.453V30.8553L128.813 30.8758C128.278 30.8758 127.804 30.9782 127.33 31.183C126.836 31.3878 126.424 31.6745 126.074 32.0226C125.724 32.3708 125.456 32.7599 125.271 33.2309C125.086 33.7019 124.983 34.1934 124.983 34.7258C124.983 35.2583 125.086 35.7293 125.271 36.1799C125.456 36.6304 125.724 37.0195 126.074 37.3676C126.424 37.7158 126.816 37.982 127.289 38.1663C127.763 38.3506 128.257 38.453 128.792 38.453H137.277ZM150.724 6.71094C149.9 6.71094 149.18 6.99764 148.624 7.55058C148.068 8.10351 147.779 8.82027 147.779 9.63943V41.259C147.779 42.0167 148.068 42.7335 148.582 43.2864C149.138 43.8803 149.859 44.1875 150.703 44.1875C151.486 44.1875 152.207 43.9008 152.763 43.3274C153.319 42.7744 153.628 42.0167 153.628 41.1566V9.61895C153.628 8.77931 153.319 8.04207 152.722 7.50962C152.186 6.97716 151.486 6.71094 150.724 6.71094ZM162.421 28.3781L171.379 39.5187C171.852 40.1331 172.079 40.8703 171.976 41.6485C171.894 42.4062 171.502 43.1025 170.905 43.5735C170.39 43.9831 169.752 44.2084 169.093 44.2084C168.208 44.2084 167.384 43.8193 166.828 43.123L156.47 30.2212C155.646 29.1768 155.625 27.7228 156.429 26.6784L165.798 14.3296C166.272 13.7152 166.951 13.3056 167.713 13.2032C168.475 13.1008 169.237 13.2851 169.855 13.7561C170.473 14.2272 170.885 14.903 170.988 15.6607C171.091 16.4184 170.905 17.1761 170.432 17.7905L162.421 28.3781Z" fill="#FFF"/>
<path fill-rule="evenodd" clip-rule="evenodd" d="M10.5783 14.3086H40.5819C42.7029 14.3086 44.4121 12.6294 44.4121 10.52C44.4121 8.41069 42.7029 6.71094 40.5819 6.71094H10.5783C8.45724 6.71094 6.74805 8.43117 6.74805 10.52C6.74805 12.6089 8.45724 14.3086 10.5783 14.3086ZM10.5783 44.249H40.5819C42.7029 44.249 44.4121 42.5493 44.4121 40.4399C44.4121 38.3306 42.7029 36.6309 40.5819 36.6309H10.5783C8.45724 36.6309 6.74805 38.3306 6.74805 40.4399C6.74805 42.5493 8.45724 44.249 10.5783 44.249ZM25.5698 24.3018H10.5783C8.45724 24.3018 6.74805 22.5815 6.74805 20.4927C6.74805 18.4038 8.45724 16.6836 10.5783 16.6836H25.5904V24.3018H25.5698ZM25.5703 34.2764H40.5824C42.7034 34.2764 44.4126 32.5766 44.4126 30.4673C44.4126 28.358 42.7034 26.6582 40.5824 26.6582H25.5703V34.2764Z" fill="#7CC48A"/>
<rect width="51.2832" height="51" rx="5.38998" fill="#67C083"/>
<path fill-rule="evenodd" clip-rule="evenodd" d="M13.9523 16.8307H37.1632C38.804 16.8307 40.1263 15.5316 40.1263 13.8998C40.1263 12.2681 38.804 10.9531 37.1632 10.9531H13.9523C12.3115 10.9531 10.9893 12.2839 10.9893 13.8998C10.9893 15.5158 12.3115 16.8307 13.9523 16.8307ZM13.9523 39.9931H37.1632C38.804 39.9931 40.1263 38.6781 40.1263 37.0463C40.1263 35.4145 38.804 34.0996 37.1632 34.0996H13.9523C12.3115 34.0996 10.9893 35.4145 10.9893 37.0463C10.9893 38.6781 12.3115 39.9931 13.9523 39.9931ZM25.5498 24.5614H13.9523C12.3115 24.5614 10.9893 23.2306 10.9893 21.6147C10.9893 19.9987 12.3115 18.668 13.9523 18.668H25.5657V24.5614H25.5498ZM25.5498 32.2763H37.1632C38.804 32.2763 40.1263 30.9613 40.1263 29.3295C40.1263 27.6977 38.804 26.3828 37.1632 26.3828H25.5498V32.2763Z" fill="white"/>
</svg>
